<?xml version="1.0" encoding="utf-8" standalone="no"?>
<!DOCTYPE svg PUBLIC "-//W3C//DTD SVG 1.1//EN"
  "http://www.w3.org/Graphics/SVG/1.1/DTD/svg11.dtd">
<!-- Created with matplotlib (http://matplotlib.org/) -->
<svg height="648pt" version="1.1" viewBox="0 0 1152 648" width="1152pt" xmlns="http://www.w3.org/2000/svg" xmlns:xlink="http://www.w3.org/1999/xlink">
 <defs>
  <style type="text/css">
*{stroke-linecap:butt;stroke-linejoin:round;}
  </style>
 </defs>
 <g id="figure_1">
  <g id="axes_1">
   <g id="patch_1">
    <path d="M 0 648 
L 1152 648 
L 1152 0 
L 0 0 
z
" style="fill:#ffffff;"/>
   </g>
   <g id="patch_2">
    <path clip-path="url(#p03371a207a)" d="M 460.8 302.724166 
L 489.6 288.580901 
L 518.4 274.045086 
L 547.2 259.107032 
L 576 243.756826 
L 604.8 227.98433 
L 633.6 211.779171 
L 662.4 195.13074 
L 691.2 178.028182 
L 720 160.46039 
L 748.8 142.416002 
L 748.8 350.034342 
L 720 361.885491 
L 691.2 373.428684 
L 662.4 384.670988 
L 633.6 395.619324 
L 604.8 406.280472 
L 576 416.661068 
L 547.2 426.767612 
L 518.4 436.60647 
L 489.6 446.183876 
L 460.8 455.505934 
z
" style="fill:#ffbf00;fill-opacity:0.2;stroke:#ffbf00;stroke-dasharray:5.6,2.4;stroke-dashoffset:0;stroke-linejoin:miter;stroke-opacity:0.8;stroke-width:2;"/>
   </g>
   <g id="patch_3">
    <path clip-path="url(#p03371a207a)" d="M 172.8 452.482763 
L 201.6 442.689856 
L 230.4 432.617015 
L 259.2 422.257222 
L 288 411.6033 
L 316.8 400.64791 
L 345.6 389.383553 
L 374.4 377.802559 
L 403.2 365.897089 
L 432 353.659126 
L 460.8 341.080475 
L 460.8 493.434761 
L 432 501.351548 
L 403.2 509.056485 
L 374.4 516.554524 
L 345.6 523.850515 
L 316.8 530.94921 
L 288 537.855263 
L 259.2 544.573232 
L 230.4 551.107585 
L 201.6 557.462693 
L 172.8 563.642842 
z
" style="fill:#7f9fff;fill-opacity:0.2;stroke:#7f9fcc;stroke-dasharray:5.6,2.4;stroke-dashoffset:0;stroke-linejoin:miter;stroke-width:2;"/>
   </g>
   <g id="patch_4">
    <path clip-path="url(#p03371a207a)" d="M 564.48 312.774071 
L 489.6 345.723531 
L 518.4 371.19545 
L 616.32 365.47283 
z
" style="fill:#006400;opacity:0.3;"/>
   </g>
   <g id="patch_5">
    <path clip-path="url(#p03371a207a)" d="M 984.96 319.293623 
L 552.96 343.42992 
L 633.6 386.709289 
z
" style="fill:#00008b;opacity:0.3;"/>
   </g>
   <g id="matplotlib.axis_1">
    <g id="xtick_1">
     <g id="line2d_1">
      <defs>
       <path d="M 0 0 
L 0 -3.5 
" id="m6c417d0ec3" style="stroke:#da251d;stroke-width:0.8;"/>
      </defs>
      <g>
       <use style="fill:#da251d;stroke:#da251d;stroke-width:0.8;" x="576" xlink:href="#m6c417d0ec3" y="648"/>
      </g>
     </g>
     <g id="text_1">
      <!-- 25 -->
      <defs>
       <path d="M 19.1875 8.296875 
L 53.609375 8.296875 
L 53.609375 0 
L 7.328125 0 
L 7.328125 8.296875 
Q 12.9375 14.109375 22.625 23.890625 
Q 32.328125 33.6875 34.8125 36.53125 
Q 39.546875 41.84375 41.421875 45.53125 
Q 43.3125 49.21875 43.3125 52.78125 
Q 43.3125 58.59375 39.234375 62.25 
Q 35.15625 65.921875 28.609375 65.921875 
Q 23.96875 65.921875 18.8125 64.3125 
Q 13.671875 62.703125 7.8125 59.421875 
L 7.8125 69.390625 
Q 13.765625 71.78125 18.9375 73 
Q 24.125 74.21875 28.421875 74.21875 
Q 39.75 74.21875 46.484375 68.546875 
Q 53.21875 62.890625 53.21875 53.421875 
Q 53.21875 48.921875 51.53125 44.890625 
Q 49.859375 40.875 45.40625 35.40625 
Q 44.1875 33.984375 37.640625 27.21875 
Q 31.109375 20.453125 19.1875 8.296875 
" id="DejaVuSans-32"/>
       <path d="M 10.796875 72.90625 
L 49.515625 72.90625 
L 49.515625 64.59375 
L 19.828125 64.59375 
L 19.828125 46.734375 
Q 21.96875 47.46875 24.109375 47.828125 
Q 26.265625 48.1875 28.421875 48.1875 
Q 40.625 48.1875 47.75 41.5 
Q 54.890625 34.8125 54.890625 23.390625 
Q 54.890625 11.625 47.5625 5.09375 
Q 40.234375 -1.421875 26.90625 -1.421875 
Q 22.3125 -1.421875 17.546875 -0.640625 
Q 12.796875 0.140625 7.71875 1.703125 
L 7.71875 11.625 
Q 12.109375 9.234375 16.796875 8.0625 
Q 21.484375 6.890625 26.703125 6.890625 
Q 35.15625 6.890625 40.078125 11.328125 
Q 45.015625 15.765625 45.015625 23.390625 
Q 45.015625 31 40.078125 35.4375 
Q 35.15625 39.890625 26.703125 39.890625 
Q 22.75 39.890625 18.8125 39.015625 
Q 14.890625 38.140625 10.796875 36.28125 
z
" id="DejaVuSans-35"/>
      </defs>
      <g style="fill:#da251d;" transform="translate(569.6375 635.598438)scale(0.1 -0.1)">
       <use xlink:href="#DejaVuSans-32"/>
       <use x="63.623047" xlink:href="#DejaVuSans-35"/>
      </g>
     </g>
    </g>
   </g>
   <g id="matplotlib.axis_2">
    <g id="ytick_1">
     <g id="line2d_2">
      <defs>
       <path d="M 0 0 
L -3.5 0 
" id="m618c80dfe1" style="stroke:#002060;stroke-width:0.8;"/>
      </defs>
      <g>
       <use style="fill:#002060;stroke:#002060;stroke-width:0.8;" x="1152" xlink:href="#m618c80dfe1" y="432"/>
      </g>
     </g>
     <g id="text_2">
      <!-- 7.5 -->
      <defs>
       <path d="M 8.203125 72.90625 
L 55.078125 72.90625 
L 55.078125 68.703125 
L 28.609375 0 
L 18.3125 0 
L 43.21875 64.59375 
L 8.203125 64.59375 
z
" id="DejaVuSans-37"/>
       <path d="M 10.6875 12.40625 
L 21 12.40625 
L 21 0 
L 10.6875 0 
z
" id="DejaVuSans-2e"/>
      </defs>
      <g style="fill:#002060;" transform="translate(1132 435.799219)scale(0.1 -0.1)">
       <use xlink:href="#DejaVuSans-37"/>
       <use x="63.623047" xlink:href="#DejaVuSans-2e"/>
       <use x="95.410156" xlink:href="#DejaVuSans-35"/>
      </g>
     </g>
    </g>
    <g id="ytick_2">
     <g id="line2d_3">
      <g>
       <use style="fill:#002060;stroke:#002060;stroke-width:0.8;" x="1152" xlink:href="#m618c80dfe1" y="216"/>
      </g>
     </g>
     <g id="text_3">
      <!-- 12.5 -->
      <defs>
       <path d="M 12.40625 8.296875 
L 28.515625 8.296875 
L 28.515625 63.921875 
L 10.984375 60.40625 
L 10.984375 69.390625 
L 28.421875 72.90625 
L 38.28125 72.90625 
L 38.28125 8.296875 
L 54.390625 8.296875 
L 54.390625 0 
L 12.40625 0 
z
" id="DejaVuSans-31"/>
      </defs>
      <g style="fill:#002060;" transform="translate(1132 219.799219)scale(0.1 -0.1)">
       <use xlink:href="#DejaVuSans-31"/>
       <use x="63.623047" xlink:href="#DejaVuSans-32"/>
       <use x="127.246094" xlink:href="#DejaVuSans-2e"/>
       <use x="159.033203" xlink:href="#DejaVuSans-35"/>
      </g>
     </g>
    </g>
   </g>
   <g id="line2d_4">
    <path clip-path="url(#p03371a207a)" d="M 0 648 
L 0 297.539775 
" style="fill:none;opacity:0.7;stroke:#da251d;stroke-dasharray:2.2,2.2;stroke-dashoffset:0;stroke-width:0.75;"/>
   </g>
   <g id="line2d_5">
    <path clip-path="url(#p03371a207a)" d="M 288 648 
L 288 123.384207 
" style="fill:none;opacity:0.7;stroke:#da251d;stroke-dasharray:2.2,2.2;stroke-dashoffset:0;stroke-width:0.75;"/>
   </g>
   <g id="line2d_6">
    <path clip-path="url(#p03371a207a)" d="M 576 648 
L 576 -1 
" style="fill:none;opacity:0.7;stroke:#da251d;stroke-dasharray:2.2,2.2;stroke-dashoffset:0;stroke-width:0.75;"/>
   </g>
   <g id="line2d_7">
    <path clip-path="url(#p03371a207a)" d="M 864 648 
L 864 -1 
" style="fill:none;opacity:0.7;stroke:#da251d;stroke-dasharray:2.2,2.2;stroke-dashoffset:0;stroke-width:0.75;"/>
   </g>
   <g id="line2d_8">
    <path clip-path="url(#p03371a207a)" d="M -1 540 
L 1152 540 
" style="fill:none;opacity:0.7;stroke:#002060;stroke-dasharray:2.2,2.2;stroke-dashoffset:0;stroke-width:0.75;"/>
   </g>
   <g id="line2d_9">
    <path clip-path="url(#p03371a207a)" d="M -1 432 
L 1152 432 
" style="fill:none;opacity:0.7;stroke:#002060;stroke-dasharray:2.2,2.2;stroke-dashoffset:0;stroke-width:0.75;"/>
   </g>
   <g id="line2d_10">
    <path clip-path="url(#p03371a207a)" d="M -1 324 
L 1152 324 
" style="fill:none;opacity:0.7;stroke:#002060;stroke-dasharray:2.2,2.2;stroke-dashoffset:0;stroke-width:0.75;"/>
   </g>
   <g id="line2d_11">
    <path clip-path="url(#p03371a207a)" d="M 151.830657 216 
L 1152 216 
" style="fill:none;opacity:0.7;stroke:#002060;stroke-dasharray:2.2,2.2;stroke-dashoffset:0;stroke-width:0.75;"/>
   </g>
   <g id="line2d_12">
    <path clip-path="url(#p03371a207a)" d="M 310.205538 108 
L 1152 108 
" style="fill:none;opacity:0.7;stroke:#002060;stroke-dasharray:2.2,2.2;stroke-dashoffset:0;stroke-width:0.75;"/>
   </g>
   <g id="line2d_13">
    <path clip-path="url(#p03371a207a)" d="M 450.54602 0 
L 1152 0 
" style="fill:none;opacity:0.7;stroke:#002060;stroke-dasharray:2.2,2.2;stroke-dashoffset:0;stroke-width:0.75;"/>
   </g>
   <g id="line2d_14">
    <path clip-path="url(#p03371a207a)" d="M -1 553.916937 
L 59.297642 649 
" style="fill:none;opacity:0.7;stroke:#008056;stroke-linecap:square;"/>
   </g>
   <g id="line2d_15">
    <path clip-path="url(#p03371a207a)" d="M 28.710944 282.356273 
L 262.796305 649 
" style="fill:none;opacity:0.7;stroke:#008056;stroke-linecap:square;"/>
   </g>
   <g id="line2d_16">
    <path clip-path="url(#p03371a207a)" d="M 184.069389 192.096963 
L 468.467513 649 
" style="fill:none;opacity:0.7;stroke:#008056;stroke-linecap:square;"/>
   </g>
   <g id="line2d_17">
    <path clip-path="url(#p03371a207a)" d="M 323.227834 98.43852 
L 671.367849 649 
" style="fill:none;opacity:0.7;stroke:#008056;stroke-linecap:square;"/>
   </g>
   <g id="line2d_18">
    <path clip-path="url(#p03371a207a)" d="M 463.352316 -1 
L 875.191254 649 
" style="fill:none;opacity:0.7;stroke:#008056;stroke-linecap:square;"/>
   </g>
   <g id="line2d_19">
    <path clip-path="url(#p03371a207a)" d="M 663.647623 -1 
L 1078.631924 649 
" style="fill:none;opacity:0.7;stroke:#008056;stroke-linecap:square;"/>
   </g>
   <g id="line2d_20">
    <path clip-path="url(#p03371a207a)" d="M 854.799973 -1 
L 1153 454.021097 
" style="fill:none;opacity:0.7;stroke:#008056;stroke-linecap:square;"/>
   </g>
   <g id="line2d_21">
    <path clip-path="url(#p03371a207a)" d="M 1062.112954 -1 
L 1153 138.627967 
" style="fill:none;opacity:0.7;stroke:#008056;stroke-linecap:square;"/>
   </g>
   <g id="line2d_22">
    <path clip-path="url(#p03371a207a)" style="fill:none;opacity:0.7;stroke:#008056;stroke-linecap:square;"/>
   </g>
   <g id="line2d_23">
    <path clip-path="url(#p03371a207a)" style="fill:none;opacity:0.7;stroke:#008056;stroke-linecap:square;"/>
   </g>
   <g id="line2d_24">
    <path clip-path="url(#p03371a207a)" style="fill:none;opacity:0.7;stroke:#008056;stroke-linecap:square;"/>
   </g>
   <g id="line2d_25">
    <path clip-path="url(#p03371a207a)" d="M 151.012829 649 
L 172.8 646.417854 
L 201.6 642.908257 
L 230.4 639.300023 
L 259.2 635.59078 
L 288 631.77811 
L 316.8 627.859545 
L 345.6 623.832569 
L 374.4 619.694617 
L 403.2 615.443073 
L 432 611.075268 
L 460.8 606.588482 
L 489.6 601.979943 
L 518.4 597.246824 
L 547.2 592.386242 
L 576 587.39526 
L 604.8 582.270882 
L 633.6 577.010058 
L 662.4 571.609675 
L 691.2 566.066564 
L 720 560.377493 
L 748.8 554.539169 
L 777.6 548.548237 
L 806.4 542.401278 
L 835.2 536.094806 
L 864 529.625273 
L 892.8 522.98906 
L 921.6 516.182483 
L 950.4 509.201786 
L 979.2 502.043143 
L 1008 494.702659 
L 1036.8 487.176361 
L 1065.6 479.460206 
L 1094.4 471.550073 
L 1123.2 463.441764 
L 1152 455.131003 
" style="fill:none;opacity:0.7;stroke:#007fff;stroke-dasharray:9.6,2.4,1.6,2.4;stroke-dashoffset:0;stroke-width:2;"/>
   </g>
   <g id="line2d_26">
    <path clip-path="url(#p03371a207a)" d="M 0 574.450866 
L 28.8 568.480028 
L 57.6 562.335915 
L 86.4 556.014171 
L 115.2 549.510346 
L 144 542.819896 
L 172.8 535.938178 
L 201.6 528.860447 
L 230.4 521.581862 
L 259.2 514.097473 
L 288 506.402227 
L 316.8 498.490964 
L 345.6 490.358412 
L 374.4 481.999189 
L 403.2 473.407797 
L 432 464.578623 
L 460.8 455.505934 
L 489.6 446.183876 
L 518.4 436.60647 
L 547.2 426.767612 
L 576 416.661068 
L 604.8 406.280472 
L 633.6 395.619324 
L 662.4 384.670988 
L 691.2 373.428684 
L 720 361.885491 
L 748.8 350.034342 
L 777.6 337.868019 
L 806.4 325.379153 
L 835.2 312.560216 
L 864 299.403522 
L 892.8 285.901223 
L 921.6 272.045302 
L 950.4 257.827571 
L 979.2 243.239671 
L 1008 228.273059 
L 1036.8 212.919014 
L 1065.6 197.168627 
L 1094.4 181.012795 
L 1123.2 164.442223 
L 1152 147.447414 
" style="fill:none;opacity:0.7;stroke:#007fff;stroke-dasharray:9.6,2.4,1.6,2.4;stroke-dashoffset:0;stroke-width:2;"/>
   </g>
   <g id="line2d_27">
    <path clip-path="url(#p03371a207a)" d="M 0 528.679578 
L 28.8 521.190333 
L 57.6 513.482879 
L 86.4 505.551675 
L 115.2 497.391059 
L 144 488.995244 
L 172.8 480.358313 
L 201.6 471.474221 
L 230.4 462.336789 
L 259.2 452.9397 
L 288 443.276501 
L 316.8 433.340595 
L 345.6 423.12524 
L 374.4 412.623546 
L 403.2 401.828471 
L 432 390.732821 
L 460.8 379.329239 
L 489.6 367.610211 
L 518.4 355.568054 
L 547.2 343.194919 
L 576 330.482781 
L 604.8 317.42344 
L 633.6 304.008516 
L 662.4 290.229441 
L 691.2 276.077461 
L 720 261.543626 
L 748.8 246.618788 
L 777.6 231.293596 
L 806.4 215.558492 
L 835.2 199.403702 
L 864 182.819238 
L 892.8 165.794885 
L 921.6 148.320201 
L 950.4 130.384508 
L 979.2 111.976888 
L 1008 93.086177 
L 1036.8 73.700955 
L 1065.6 53.809547 
L 1094.4 33.400007 
L 1123.2 12.460119 
L 1141.24479 -1 
" style="fill:none;opacity:0.7;stroke:#007fff;stroke-dasharray:9.6,2.4,1.6,2.4;stroke-dashoffset:0;stroke-width:2;"/>
   </g>
   <g id="line2d_28">
    <path clip-path="url(#p03371a207a)" d="M 0 482.753125 
L 28.8 473.735036 
L 57.6 464.45314 
L 86.4 454.900675 
L 115.2 445.070722 
L 144 434.956209 
L 172.8 424.5499 
L 201.6 413.844397 
L 230.4 402.832133 
L 259.2 391.50537 
L 288 379.856196 
L 316.8 367.876515 
L 345.6 355.558052 
L 374.4 342.892342 
L 403.2 329.870727 
L 432 316.484354 
L 460.8 302.724166 
L 489.6 288.580901 
L 518.4 274.045086 
L 547.2 259.107032 
L 576 243.756826 
L 604.8 227.98433 
L 633.6 211.779171 
L 662.4 195.13074 
L 691.2 178.028182 
L 720 160.46039 
L 748.8 142.416002 
L 777.6 123.883391 
L 806.4 104.850659 
L 835.2 85.30563 
L 864 65.235844 
L 892.8 44.628548 
L 921.6 23.470687 
L 950.4 1.748898 
L 953.950243 -1 
" style="fill:none;opacity:0.7;stroke:#007fff;stroke-dasharray:9.6,2.4,1.6,2.4;stroke-dashoffset:0;stroke-width:2;"/>
   </g>
   <g id="line2d_29">
    <path clip-path="url(#p03371a207a)" d="M 0 390.431561 
L 28.8 378.324143 
L 57.6 365.859707 
L 86.4 353.02892 
L 115.2 339.822229 
L 144 326.229849 
L 172.8 312.241765 
L 201.6 297.847722 
L 230.4 283.037218 
L 259.2 267.7995 
L 288 252.123557 
L 316.8 235.998115 
L 345.6 219.411626 
L 374.4 202.352264 
L 403.2 184.807917 
L 432 166.76618 
L 460.8 148.214347 
L 489.6 129.1394 
L 518.4 109.528007 
L 547.2 89.366505 
L 576 68.640898 
L 604.8 47.336844 
L 633.6 25.439646 
L 662.4 2.934244 
L 667.298873 -1 
" style="fill:none;opacity:0.7;stroke:#007fff;stroke-dasharray:9.6,2.4,1.6,2.4;stroke-dashoffset:0;stroke-width:2;"/>
   </g>
   <g id="line2d_30">
    <path clip-path="url(#p03371a207a)" d="M -1 514.434792 
L 442.95583 649 
" style="fill:none;opacity:0.7;stroke:#7fdfff;stroke-linecap:square;"/>
   </g>
   <g id="line2d_31">
    <path clip-path="url(#p03371a207a)" d="M 0 297.539775 
L 1143.648528 649 
" style="fill:none;opacity:0.7;stroke:#7fdfff;stroke-linecap:square;"/>
   </g>
   <g id="line2d_32">
    <path clip-path="url(#p03371a207a)" d="M 0 297.479786 
L 28.8 282.240304 
L 57.6 266.547847 
L 86.4 250.390346 
L 115.2 233.755432 
L 144 216.630426 
L 172.8 199.002332 
L 201.6 180.857828 
L 230.4 162.183256 
L 259.2 142.964613 
L 288 123.187544 
L 316.8 102.837328 
L 345.6 81.89887 
L 374.4 60.356689 
L 403.2 38.19491 
L 432 15.397246 
L 452.137979 -1 
" style="fill:none;stroke:#da251d;stroke-linecap:square;stroke-width:5;"/>
   </g>
   <g id="line2d_33">
    <path clip-path="url(#p03371a207a)" d="M 57.6 648 
L 57.6 266.625306 
" style="fill:none;stroke:#002060;stroke-dasharray:2.2,2.2;stroke-dashoffset:0;stroke-width:2;"/>
   </g>
   <g id="line2d_34">
    <path clip-path="url(#p03371a207a)" d="M 460.8 648 
L 460.8 -1 
" style="fill:none;stroke:#799c13;stroke-dasharray:2.2,2.2;stroke-dashoffset:0;stroke-width:2;"/>
   </g>
   <g id="line2d_35">
    <path clip-path="url(#p03371a207a)" d="M 864 -1 
L 864 648 
" style="fill:none;stroke:#ff003f;stroke-dasharray:2.2,2.2;stroke-dashoffset:0;stroke-width:2;"/>
   </g>
   <g id="line2d_36">
    <path clip-path="url(#p03371a207a)" d="M 564.48 312.774071 
L 489.6 345.723531 
" style="fill:none;opacity:0.5;stroke:#006400;stroke-dasharray:2.2,2.2;stroke-dashoffset:0;stroke-width:2;"/>
   </g>
   <g id="line2d_37">
    <path clip-path="url(#p03371a207a)" d="M 564.48 312.774071 
L 616.32 365.47283 
" style="fill:none;opacity:0.5;stroke:#006400;stroke-dasharray:2.2,2.2;stroke-dashoffset:0;stroke-width:2;"/>
   </g>
   <g id="line2d_38">
    <path clip-path="url(#p03371a207a)" d="M 518.4 371.19545 
L 489.6 345.723531 
" style="fill:none;opacity:0.5;stroke:#006400;stroke-dasharray:2.2,2.2;stroke-dashoffset:0;stroke-width:2;"/>
   </g>
   <g id="line2d_39">
    <path clip-path="url(#p03371a207a)" d="M 518.4 371.19545 
L 616.32 365.47283 
" style="fill:none;opacity:0.5;stroke:#006400;stroke-dasharray:2.2,2.2;stroke-dashoffset:0;stroke-width:2;"/>
   </g>
   <g id="line2d_40">
    <path clip-path="url(#p03371a207a)" d="M 984.96 319.293623 
L 552.96 343.42992 
" style="fill:none;opacity:0.5;stroke:#00008b;stroke-dasharray:5.6,2.4;stroke-dashoffset:0;"/>
   </g>
   <g id="line2d_41">
    <path clip-path="url(#p03371a207a)" d="M 633.6 386.709289 
L 552.96 343.42992 
" style="fill:none;opacity:0.5;stroke:#00008b;stroke-dasharray:5.6,2.4;stroke-dashoffset:0;"/>
   </g>
   <g id="line2d_42">
    <path clip-path="url(#p03371a207a)" d="M 633.6 386.709289 
L 984.96 319.293623 
" style="fill:none;opacity:0.5;stroke:#00008b;stroke-dasharray:5.6,2.4;stroke-dashoffset:0;"/>
   </g>
   <g id="line2d_43">
    <path clip-path="url(#p03371a207a)" d="M 489.6 345.528103 
" style="fill:none;opacity:0.9;"/>
    <defs>
     <path d="M 0 4 
C 1.060812 4 2.078319 3.578535 2.828427 2.828427 
C 3.578535 2.078319 4 1.060812 4 0 
C 4 -1.060812 3.578535 -2.078319 2.828427 -2.828427 
C 2.078319 -3.578535 1.060812 -4 0 -4 
C -1.060812 -4 -2.078319 -3.578535 -2.828427 -2.828427 
C -3.578535 -2.078319 -4 -1.060812 -4 0 
C -4 1.060812 -3.578535 2.078319 -2.828427 2.828427 
C -2.078319 3.578535 -1.060812 4 0 4 
z
" id="me9c7d0413f" style="stroke:#fd9d64;"/>
    </defs>
    <g clip-path="url(#p03371a207a)">
     <use style="fill:#fd9d64;opacity:0.9;stroke:#fd9d64;" x="489.6" xlink:href="#me9c7d0413f" y="345.528103"/>
    </g>
   </g>
   <g id="line2d_44">
    <path clip-path="url(#p03371a207a)" d="M 547.2 342.356598 
" style="fill:none;opacity:0.9;"/>
    <defs>
     <path d="M 0 4.5 
C 1.193414 4.5 2.338109 4.025852 3.181981 3.181981 
C 4.025852 2.338109 4.5 1.193414 4.5 0 
C 4.5 -1.193414 4.025852 -2.338109 3.181981 -3.181981 
C 2.338109 -4.025852 1.193414 -4.5 0 -4.5 
C -1.193414 -4.5 -2.338109 -4.025852 -3.181981 -3.181981 
C -4.025852 -2.338109 -4.5 -1.193414 -4.5 0 
C -4.5 1.193414 -4.025852 2.338109 -3.181981 3.181981 
C -2.338109 4.025852 -1.193414 4.5 0 4.5 
z
" id="mc21d1e64de" style="stroke:#f15346;"/>
    </defs>
    <g clip-path="url(#p03371a207a)">
     <use style="fill:#f15346;opacity:0.9;stroke:#f15346;" x="547.2" xlink:href="#mc21d1e64de" y="342.356598"/>
    </g>
   </g>
   <g id="line2d_45">
    <path clip-path="url(#p03371a207a)" d="M 564.48 312.533023 
" style="fill:none;opacity:0.9;"/>
    <defs>
     <path d="M 0 5 
C 1.326016 5 2.597899 4.473168 3.535534 3.535534 
C 4.473168 2.597899 5 1.326016 5 0 
C 5 -1.326016 4.473168 -2.597899 3.535534 -3.535534 
C 2.597899 -4.473168 1.326016 -5 0 -5 
C -1.326016 -5 -2.597899 -4.473168 -3.535534 -3.535534 
C -4.473168 -2.597899 -5 -1.326016 -5 0 
C -5 1.326016 -4.473168 2.597899 -3.535534 3.535534 
C -2.597899 4.473168 -1.326016 5 0 5 
z
" id="m593283b765" style="stroke:#006400;"/>
    </defs>
    <g clip-path="url(#p03371a207a)">
     <use style="fill:#006400;opacity:0.9;stroke:#006400;" x="564.48" xlink:href="#m593283b765" y="312.533023"/>
    </g>
   </g>
   <g id="line2d_46">
    <path clip-path="url(#p03371a207a)" d="M 518.4 371.002507 
" style="fill:none;opacity:0.9;"/>
    <defs>
     <path d="M 0 4.5 
C 1.193414 4.5 2.338109 4.025852 3.181981 3.181981 
C 4.025852 2.338109 4.5 1.193414 4.5 0 
C 4.5 -1.193414 4.025852 -2.338109 3.181981 -3.181981 
C 2.338109 -4.025852 1.193414 -4.5 0 -4.5 
C -1.193414 -4.5 -2.338109 -4.025852 -3.181981 -3.181981 
C -4.025852 -2.338109 -4.5 -1.193414 -4.5 0 
C -4.5 1.193414 -4.025852 2.338109 -3.181981 3.181981 
C -2.338109 4.025852 -1.193414 4.5 0 4.5 
z
" id="m904425b6a8" style="stroke:#00008b;"/>
    </defs>
    <g clip-path="url(#p03371a207a)">
     <use style="fill:#00008b;opacity:0.9;stroke:#00008b;" x="518.4" xlink:href="#m904425b6a8" y="371.002507"/>
    </g>
   </g>
   <g id="line2d_47">
    <path clip-path="url(#p03371a207a)" d="M 616.32 365.242538 
" style="fill:none;opacity:0.9;"/>
    <defs>
     <path d="M 0 6 
C 1.591219 6 3.117479 5.367802 4.242641 4.242641 
C 5.367802 3.117479 6 1.591219 6 0 
C 6 -1.591219 5.367802 -3.117479 4.242641 -4.242641 
C 3.117479 -5.367802 1.591219 -6 0 -6 
C -1.591219 -6 -3.117479 -5.367802 -4.242641 -4.242641 
C -5.367802 -3.117479 -6 -1.591219 -6 0 
C -6 1.591219 -5.367802 3.117479 -4.242641 4.242641 
C -3.117479 5.367802 -1.591219 6 0 6 
z
" id="m547c2ddd15" style="stroke:#8fbb46;"/>
    </defs>
    <g clip-path="url(#p03371a207a)">
     <use style="fill:#8fbb46;opacity:0.9;stroke:#8fbb46;" x="616.32" xlink:href="#m547c2ddd15" y="365.242538"/>
    </g>
   </g>
   <g id="line2d_48">
    <path clip-path="url(#p03371a207a)" d="M 564.48 339.877857 
" style="fill:none;opacity:0.9;"/>
    <defs>
     <path d="M 0 6 
C 1.591219 6 3.117479 5.367802 4.242641 4.242641 
C 5.367802 3.117479 6 1.591219 6 0 
C 6 -1.591219 5.367802 -3.117479 4.242641 -4.242641 
C 3.117479 -5.367802 1.591219 -6 0 -6 
C -1.591219 -6 -3.117479 -5.367802 -4.242641 -4.242641 
C -5.367802 -3.117479 -6 -1.591219 -6 0 
C -6 1.591219 -5.367802 3.117479 -4.242641 4.242641 
C -3.117479 5.367802 -1.591219 6 0 6 
z
" id="mc11a36fa52" style="stroke:#ff8c00;"/>
    </defs>
    <g clip-path="url(#p03371a207a)">
     <use style="fill:#ff8c00;opacity:0.9;stroke:#ff8c00;" x="564.48" xlink:href="#mc11a36fa52" y="339.877857"/>
    </g>
   </g>
   <g id="line2d_49">
    <path clip-path="url(#p03371a207a)" d="M 552.96 343.210077 
" style="fill:none;opacity:0.7;"/>
    <defs>
     <path d="M 0 4.5 
C 1.193414 4.5 2.338109 4.025852 3.181981 3.181981 
C 4.025852 2.338109 4.5 1.193414 4.5 0 
C 4.5 -1.193414 4.025852 -2.338109 3.181981 -3.181981 
C 2.338109 -4.025852 1.193414 -4.5 0 -4.5 
C -1.193414 -4.5 -2.338109 -4.025852 -3.181981 -3.181981 
C -4.025852 -2.338109 -4.5 -1.193414 -4.5 0 
C -4.5 1.193414 -4.025852 2.338109 -3.181981 3.181981 
C -2.338109 4.025852 -1.193414 4.5 0 4.5 
z
" id="ma13db3c28a" style="stroke:#a250fb;"/>
    </defs>
    <g clip-path="url(#p03371a207a)">
     <use style="fill:#a250fb;opacity:0.7;stroke:#a250fb;" x="552.96" xlink:href="#ma13db3c28a" y="343.210077"/>
    </g>
   </g>
   <g id="line2d_50">
    <path clip-path="url(#p03371a207a)" d="M 984.96 318.8939 
" style="fill:none;opacity:0.7;"/>
    <defs>
     <path d="M 0 6 
C 1.591219 6 3.117479 5.367802 4.242641 4.242641 
C 5.367802 3.117479 6 1.591219 6 0 
C 6 -1.591219 5.367802 -3.117479 4.242641 -4.242641 
C 3.117479 -5.367802 1.591219 -6 0 -6 
C -1.591219 -6 -3.117479 -5.367802 -4.242641 -4.242641 
C -5.367802 -3.117479 -6 -1.591219 -6 0 
C -6 1.591219 -5.367802 3.117479 -4.242641 4.242641 
C -3.117479 5.367802 -1.591219 6 0 6 
z
" id="m4be0c68ce2" style="stroke:#5882fb;"/>
    </defs>
    <g clip-path="url(#p03371a207a)">
     <use style="fill:#5882fb;opacity:0.7;stroke:#5882fb;" x="984.96" xlink:href="#m4be0c68ce2" y="318.8939"/>
    </g>
   </g>
   <g id="line2d_51">
    <path clip-path="url(#p03371a207a)" d="M 633.6 386.4859 
" style="fill:none;opacity:0.6;"/>
    <defs>
     <path d="M 0 3.5 
C 0.928211 3.5 1.81853 3.131218 2.474874 2.474874 
C 3.131218 1.81853 3.5 0.928211 3.5 0 
C 3.5 -0.928211 3.131218 -1.81853 2.474874 -2.474874 
C 1.81853 -3.131218 0.928211 -3.5 0 -3.5 
C -0.928211 -3.5 -1.81853 -3.131218 -2.474874 -2.474874 
C -3.131218 -1.81853 -3.5 -0.928211 -3.5 0 
C -3.5 0.928211 -3.131218 1.81853 -2.474874 2.474874 
C -1.81853 3.131218 -0.928211 3.5 0 3.5 
z
" id="m51c008a68b" style="stroke:#7996bb;"/>
    </defs>
    <g clip-path="url(#p03371a207a)">
     <use style="fill:#7996bb;opacity:0.6;stroke:#7996bb;" x="633.6" xlink:href="#m51c008a68b" y="386.4859"/>
    </g>
   </g>
   <g id="patch_6">
    <path d="M 1152 648 
L 1152 0 
" style="fill:none;stroke:#002060;stroke-linecap:square;stroke-linejoin:miter;stroke-width:2;"/>
   </g>
   <g id="patch_7">
    <path d="M 0 648 
L 1152 648 
" style="fill:none;stroke:#da251d;stroke-linecap:square;stroke-linejoin:miter;stroke-width:2;"/>
   </g>
   <g id="text_4">
    <!-- RH 20 % -->
    <defs>
     <path d="M 44.390625 34.1875 
Q 47.5625 33.109375 50.5625 29.59375 
Q 53.5625 26.078125 56.59375 19.921875 
L 66.609375 0 
L 56 0 
L 46.6875 18.703125 
Q 43.0625 26.03125 39.671875 28.421875 
Q 36.28125 30.8125 30.421875 30.8125 
L 19.671875 30.8125 
L 19.671875 0 
L 9.8125 0 
L 9.8125 72.90625 
L 32.078125 72.90625 
Q 44.578125 72.90625 50.734375 67.671875 
Q 56.890625 62.453125 56.890625 51.90625 
Q 56.890625 45.015625 53.6875 40.46875 
Q 50.484375 35.9375 44.390625 34.1875 
M 19.671875 64.796875 
L 19.671875 38.921875 
L 32.078125 38.921875 
Q 39.203125 38.921875 42.84375 42.21875 
Q 46.484375 45.515625 46.484375 51.90625 
Q 46.484375 58.296875 42.84375 61.546875 
Q 39.203125 64.796875 32.078125 64.796875 
z
" id="DejaVuSans-52"/>
     <path d="M 9.8125 72.90625 
L 19.671875 72.90625 
L 19.671875 43.015625 
L 55.515625 43.015625 
L 55.515625 72.90625 
L 65.375 72.90625 
L 65.375 0 
L 55.515625 0 
L 55.515625 34.71875 
L 19.671875 34.71875 
L 19.671875 0 
L 9.8125 0 
z
" id="DejaVuSans-48"/>
     <path id="DejaVuSans-20"/>
     <path d="M 31.78125 66.40625 
Q 24.171875 66.40625 20.328125 58.90625 
Q 16.5 51.421875 16.5 36.375 
Q 16.5 21.390625 20.328125 13.890625 
Q 24.171875 6.390625 31.78125 6.390625 
Q 39.453125 6.390625 43.28125 13.890625 
Q 47.125 21.390625 47.125 36.375 
Q 47.125 51.421875 43.28125 58.90625 
Q 39.453125 66.40625 31.78125 66.40625 
M 31.78125 74.21875 
Q 44.046875 74.21875 50.515625 64.515625 
Q 56.984375 54.828125 56.984375 36.375 
Q 56.984375 17.96875 50.515625 8.265625 
Q 44.046875 -1.421875 31.78125 -1.421875 
Q 19.53125 -1.421875 13.0625 8.265625 
Q 6.59375 17.96875 6.59375 36.375 
Q 6.59375 54.828125 13.0625 64.515625 
Q 19.53125 74.21875 31.78125 74.21875 
" id="DejaVuSans-30"/>
     <path d="M 72.703125 32.078125 
Q 68.453125 32.078125 66.03125 28.46875 
Q 63.625 24.859375 63.625 18.40625 
Q 63.625 12.0625 66.03125 8.421875 
Q 68.453125 4.78125 72.703125 4.78125 
Q 76.859375 4.78125 79.265625 8.421875 
Q 81.6875 12.0625 81.6875 18.40625 
Q 81.6875 24.8125 79.265625 28.4375 
Q 76.859375 32.078125 72.703125 32.078125 
M 72.703125 38.28125 
Q 80.421875 38.28125 84.953125 32.90625 
Q 89.5 27.546875 89.5 18.40625 
Q 89.5 9.28125 84.9375 3.921875 
Q 80.375 -1.421875 72.703125 -1.421875 
Q 64.890625 -1.421875 60.34375 3.921875 
Q 55.8125 9.28125 55.8125 18.40625 
Q 55.8125 27.59375 60.375 32.9375 
Q 64.9375 38.28125 72.703125 38.28125 
M 22.3125 68.015625 
Q 18.109375 68.015625 15.6875 64.375 
Q 13.28125 60.75 13.28125 54.390625 
Q 13.28125 47.953125 15.671875 44.328125 
Q 18.0625 40.71875 22.3125 40.71875 
Q 26.5625 40.71875 28.96875 44.328125 
Q 31.390625 47.953125 31.390625 54.390625 
Q 31.390625 60.6875 28.953125 64.34375 
Q 26.515625 68.015625 22.3125 68.015625 
M 66.40625 74.21875 
L 74.21875 74.21875 
L 28.609375 -1.421875 
L 20.796875 -1.421875 
z
M 22.3125 74.21875 
Q 30.03125 74.21875 34.609375 68.875 
Q 39.203125 63.53125 39.203125 54.390625 
Q 39.203125 45.171875 34.640625 39.84375 
Q 30.078125 34.515625 22.3125 34.515625 
Q 14.546875 34.515625 10.03125 39.859375 
Q 5.515625 45.21875 5.515625 54.390625 
Q 5.515625 63.484375 10.046875 68.84375 
Q 14.59375 74.21875 22.3125 74.21875 
" id="DejaVuSans-25"/>
    </defs>
    <g style="fill:#005fbf;" transform="translate(900.190081 519.232025)rotate(-13.624888)scale(0.1 -0.1)">
     <use xlink:href="#DejaVuSans-52"/>
     <use x="69.482422" xlink:href="#DejaVuSans-48"/>
     <use x="144.677734" xlink:href="#DejaVuSans-20"/>
     <use x="176.464844" xlink:href="#DejaVuSans-32"/>
     <use x="240.087891" xlink:href="#DejaVuSans-30"/>
     <use x="303.710938" xlink:href="#DejaVuSans-20"/>
     <use x="335.498047" xlink:href="#DejaVuSans-25"/>
    </g>
   </g>
   <g id="text_5">
    <!-- RH 40 % -->
    <defs>
     <path d="M 37.796875 64.3125 
L 12.890625 25.390625 
L 37.796875 25.390625 
z
M 35.203125 72.90625 
L 47.609375 72.90625 
L 47.609375 25.390625 
L 58.015625 25.390625 
L 58.015625 17.1875 
L 47.609375 17.1875 
L 47.609375 0 
L 37.796875 0 
L 37.796875 17.1875 
L 4.890625 17.1875 
L 4.890625 26.703125 
z
" id="DejaVuSans-34"/>
    </defs>
    <g style="fill:#005fbf;" transform="translate(901.37753 279.709248)rotate(-26.274226)scale(0.1 -0.1)">
     <use xlink:href="#DejaVuSans-52"/>
     <use x="69.482422" xlink:href="#DejaVuSans-48"/>
     <use x="144.677734" xlink:href="#DejaVuSans-20"/>
     <use x="176.464844" xlink:href="#DejaVuSans-34"/>
     <use x="240.087891" xlink:href="#DejaVuSans-30"/>
     <use x="303.710938" xlink:href="#DejaVuSans-20"/>
     <use x="335.498047" xlink:href="#DejaVuSans-25"/>
    </g>
   </g>
   <g id="text_6">
    <!-- RH 60 % -->
    <defs>
     <path d="M 33.015625 40.375 
Q 26.375 40.375 22.484375 35.828125 
Q 18.609375 31.296875 18.609375 23.390625 
Q 18.609375 15.53125 22.484375 10.953125 
Q 26.375 6.390625 33.015625 6.390625 
Q 39.65625 6.390625 43.53125 10.953125 
Q 47.40625 15.53125 47.40625 23.390625 
Q 47.40625 31.296875 43.53125 35.828125 
Q 39.65625 40.375 33.015625 40.375 
M 52.59375 71.296875 
L 52.59375 62.3125 
Q 48.875 64.0625 45.09375 64.984375 
Q 41.3125 65.921875 37.59375 65.921875 
Q 27.828125 65.921875 22.671875 59.328125 
Q 17.53125 52.734375 16.796875 39.40625 
Q 19.671875 43.65625 24.015625 45.921875 
Q 28.375 48.1875 33.59375 48.1875 
Q 44.578125 48.1875 50.953125 41.515625 
Q 57.328125 34.859375 57.328125 23.390625 
Q 57.328125 12.15625 50.6875 5.359375 
Q 44.046875 -1.421875 33.015625 -1.421875 
Q 20.359375 -1.421875 13.671875 8.265625 
Q 6.984375 17.96875 6.984375 36.375 
Q 6.984375 53.65625 15.1875 63.9375 
Q 23.390625 74.21875 37.203125 74.21875 
Q 40.921875 74.21875 44.703125 73.484375 
Q 48.484375 72.75 52.59375 71.296875 
" id="DejaVuSans-36"/>
    </defs>
    <g style="fill:#005fbf;" transform="translate(903.16202 34.772246)rotate(-37.024649)scale(0.1 -0.1)">
     <use xlink:href="#DejaVuSans-52"/>
     <use x="69.482422" xlink:href="#DejaVuSans-48"/>
     <use x="144.677734" xlink:href="#DejaVuSans-20"/>
     <use x="176.464844" xlink:href="#DejaVuSans-36"/>
     <use x="240.087891" xlink:href="#DejaVuSans-30"/>
     <use x="303.710938" xlink:href="#DejaVuSans-20"/>
     <use x="335.498047" xlink:href="#DejaVuSans-25"/>
    </g>
   </g>
   <g id="text_7">
    <!-- 10 °C -->
    <defs>
     <path d="M 25 67.921875 
Q 21.09375 67.921875 18.40625 65.203125 
Q 15.71875 62.5 15.71875 58.59375 
Q 15.71875 54.734375 18.40625 52.078125 
Q 21.09375 49.421875 25 49.421875 
Q 28.90625 49.421875 31.59375 52.078125 
Q 34.28125 54.734375 34.28125 58.59375 
Q 34.28125 62.453125 31.5625 65.1875 
Q 28.859375 67.921875 25 67.921875 
M 25 74.21875 
Q 28.125 74.21875 31 73.015625 
Q 33.890625 71.828125 35.984375 69.578125 
Q 38.234375 67.390625 39.359375 64.59375 
Q 40.484375 61.8125 40.484375 58.59375 
Q 40.484375 52.15625 35.96875 47.6875 
Q 31.453125 43.21875 24.90625 43.21875 
Q 18.3125 43.21875 13.90625 47.609375 
Q 9.515625 52 9.515625 58.59375 
Q 9.515625 65.140625 14 69.671875 
Q 18.5 74.21875 25 74.21875 
" id="DejaVuSans-b0"/>
     <path d="M 64.40625 67.28125 
L 64.40625 56.890625 
Q 59.421875 61.53125 53.78125 63.8125 
Q 48.140625 66.109375 41.796875 66.109375 
Q 29.296875 66.109375 22.65625 58.46875 
Q 16.015625 50.828125 16.015625 36.375 
Q 16.015625 21.96875 22.65625 14.328125 
Q 29.296875 6.6875 41.796875 6.6875 
Q 48.140625 6.6875 53.78125 8.984375 
Q 59.421875 11.28125 64.40625 15.921875 
L 64.40625 5.609375 
Q 59.234375 2.09375 53.4375 0.328125 
Q 47.65625 -1.421875 41.21875 -1.421875 
Q 24.65625 -1.421875 15.125 8.703125 
Q 5.609375 18.84375 5.609375 36.375 
Q 5.609375 53.953125 15.125 64.078125 
Q 24.65625 74.21875 41.21875 74.21875 
Q 47.75 74.21875 53.53125 72.484375 
Q 59.328125 70.75 64.40625 67.28125 
" id="DejaVuSans-43"/>
    </defs>
    <g style="fill:#5fa7bf;" transform="translate(58.203261 530.206471)rotate(-343.137684)scale(0.1 -0.1)">
     <use xlink:href="#DejaVuSans-31"/>
     <use x="63.623047" xlink:href="#DejaVuSans-30"/>
     <use x="127.246094" xlink:href="#DejaVuSans-20"/>
     <use x="159.033203" xlink:href="#DejaVuSans-b0"/>
     <use x="209.033203" xlink:href="#DejaVuSans-43"/>
    </g>
   </g>
   <g id="text_8">
    <!-- 15 °C -->
    <g style="fill:#5fa7bf;" transform="translate(58.210921 313.25318)rotate(-342.917027)scale(0.1 -0.1)">
     <use xlink:href="#DejaVuSans-31"/>
     <use x="63.623047" xlink:href="#DejaVuSans-35"/>
     <use x="127.246094" xlink:href="#DejaVuSans-20"/>
     <use x="159.033203" xlink:href="#DejaVuSans-b0"/>
     <use x="209.033203" xlink:href="#DejaVuSans-43"/>
    </g>
   </g>
   <g id="text_9">
    <g id="patch_8">
     <path d="M 579.584375 307.800031 
L 630.015625 307.800031 
L 630.015625 290.121906 
L 579.584375 290.121906 
z
" style="fill:#ffffff;fill-opacity:0.4;stroke:#ffffff;stroke-linejoin:miter;stroke-opacity:0.4;"/>
    </g>
    <!-- Summer -->
    <defs>
     <path d="M 53.515625 70.515625 
L 53.515625 60.890625 
Q 47.90625 63.578125 42.921875 64.890625 
Q 37.9375 66.21875 33.296875 66.21875 
Q 25.25 66.21875 20.875 63.09375 
Q 16.5 59.96875 16.5 54.203125 
Q 16.5 49.359375 19.40625 46.890625 
Q 22.3125 44.4375 30.421875 42.921875 
L 36.375 41.703125 
Q 47.40625 39.59375 52.65625 34.296875 
Q 57.90625 29 57.90625 20.125 
Q 57.90625 9.515625 50.796875 4.046875 
Q 43.703125 -1.421875 29.984375 -1.421875 
Q 24.8125 -1.421875 18.96875 -0.25 
Q 13.140625 0.921875 6.890625 3.21875 
L 6.890625 13.375 
Q 12.890625 10.015625 18.65625 8.296875 
Q 24.421875 6.59375 29.984375 6.59375 
Q 38.421875 6.59375 43.015625 9.90625 
Q 47.609375 13.234375 47.609375 19.390625 
Q 47.609375 24.75 44.3125 27.78125 
Q 41.015625 30.8125 33.5 32.328125 
L 27.484375 33.5 
Q 16.453125 35.6875 11.515625 40.375 
Q 6.59375 45.0625 6.59375 53.421875 
Q 6.59375 63.09375 13.40625 68.65625 
Q 20.21875 74.21875 32.171875 74.21875 
Q 37.3125 74.21875 42.625 73.28125 
Q 47.953125 72.359375 53.515625 70.515625 
" id="DejaVuSans-53"/>
     <path d="M 8.5 21.578125 
L 8.5 54.6875 
L 17.484375 54.6875 
L 17.484375 21.921875 
Q 17.484375 14.15625 20.5 10.265625 
Q 23.53125 6.390625 29.59375 6.390625 
Q 36.859375 6.390625 41.078125 11.03125 
Q 45.3125 15.671875 45.3125 23.6875 
L 45.3125 54.6875 
L 54.296875 54.6875 
L 54.296875 0 
L 45.3125 0 
L 45.3125 8.40625 
Q 42.046875 3.421875 37.71875 1 
Q 33.40625 -1.421875 27.6875 -1.421875 
Q 18.265625 -1.421875 13.375 4.4375 
Q 8.5 10.296875 8.5 21.578125 
M 31.109375 56 
z
" id="DejaVuSans-75"/>
     <path d="M 52 44.1875 
Q 55.375 50.25 60.0625 53.125 
Q 64.75 56 71.09375 56 
Q 79.640625 56 84.28125 50.015625 
Q 88.921875 44.046875 88.921875 33.015625 
L 88.921875 0 
L 79.890625 0 
L 79.890625 32.71875 
Q 79.890625 40.578125 77.09375 44.375 
Q 74.3125 48.1875 68.609375 48.1875 
Q 61.625 48.1875 57.5625 43.546875 
Q 53.515625 38.921875 53.515625 30.90625 
L 53.515625 0 
L 44.484375 0 
L 44.484375 32.71875 
Q 44.484375 40.625 41.703125 44.40625 
Q 38.921875 48.1875 33.109375 48.1875 
Q 26.21875 48.1875 22.15625 43.53125 
Q 18.109375 38.875 18.109375 30.90625 
L 18.109375 0 
L 9.078125 0 
L 9.078125 54.6875 
L 18.109375 54.6875 
L 18.109375 46.1875 
Q 21.1875 51.21875 25.484375 53.609375 
Q 29.78125 56 35.6875 56 
Q 41.65625 56 45.828125 52.96875 
Q 50 49.953125 52 44.1875 
" id="DejaVuSans-6d"/>
     <path d="M 56.203125 29.59375 
L 56.203125 25.203125 
L 14.890625 25.203125 
Q 15.484375 15.921875 20.484375 11.0625 
Q 25.484375 6.203125 34.421875 6.203125 
Q 39.59375 6.203125 44.453125 7.46875 
Q 49.3125 8.734375 54.109375 11.28125 
L 54.109375 2.78125 
Q 49.265625 0.734375 44.1875 -0.34375 
Q 39.109375 -1.421875 33.890625 -1.421875 
Q 20.796875 -1.421875 13.15625 6.1875 
Q 5.515625 13.8125 5.515625 26.8125 
Q 5.515625 40.234375 12.765625 48.109375 
Q 20.015625 56 32.328125 56 
Q 43.359375 56 49.78125 48.890625 
Q 56.203125 41.796875 56.203125 29.59375 
M 47.21875 32.234375 
Q 47.125 39.59375 43.09375 43.984375 
Q 39.0625 48.390625 32.421875 48.390625 
Q 24.90625 48.390625 20.390625 44.140625 
Q 15.875 39.890625 15.1875 32.171875 
z
" id="DejaVuSans-65"/>
     <path d="M 41.109375 46.296875 
Q 39.59375 47.171875 37.8125 47.578125 
Q 36.03125 48 33.890625 48 
Q 26.265625 48 22.1875 43.046875 
Q 18.109375 38.09375 18.109375 28.8125 
L 18.109375 0 
L 9.078125 0 
L 9.078125 54.6875 
L 18.109375 54.6875 
L 18.109375 46.1875 
Q 20.953125 51.171875 25.484375 53.578125 
Q 30.03125 56 36.53125 56 
Q 37.453125 56 38.578125 55.875 
Q 39.703125 55.765625 41.0625 55.515625 
z
" id="DejaVuSans-72"/>
    </defs>
    <g style="fill:#bf8f00;" transform="translate(583.584375 301.720343)scale(0.1 -0.1)">
     <use xlink:href="#DejaVuSans-53"/>
     <use x="63.476562" xlink:href="#DejaVuSans-75"/>
     <use x="126.855469" xlink:href="#DejaVuSans-6d"/>
     <use x="224.267578" xlink:href="#DejaVuSans-6d"/>
     <use x="321.679688" xlink:href="#DejaVuSans-65"/>
     <use x="383.203125" xlink:href="#DejaVuSans-72"/>
    </g>
   </g>
   <g id="text_10">
    <g id="patch_9">
     <path d="M 296.207812 461.200721 
L 337.392187 461.200721 
L 337.392187 443.522596 
L 296.207812 443.522596 
z
" style="fill:#ffffff;fill-opacity:0.4;stroke:#ffffff;stroke-linejoin:miter;stroke-opacity:0.4;"/>
    </g>
    <!-- Winter -->
    <defs>
     <path d="M 3.328125 72.90625 
L 13.28125 72.90625 
L 28.609375 11.28125 
L 43.890625 72.90625 
L 54.984375 72.90625 
L 70.3125 11.28125 
L 85.59375 72.90625 
L 95.609375 72.90625 
L 77.296875 0 
L 64.890625 0 
L 49.515625 63.28125 
L 33.984375 0 
L 21.578125 0 
z
" id="DejaVuSans-57"/>
     <path d="M 9.421875 54.6875 
L 18.40625 54.6875 
L 18.40625 0 
L 9.421875 0 
z
M 9.421875 75.984375 
L 18.40625 75.984375 
L 18.40625 64.59375 
L 9.421875 64.59375 
z
" id="DejaVuSans-69"/>
     <path d="M 54.890625 33.015625 
L 54.890625 0 
L 45.90625 0 
L 45.90625 32.71875 
Q 45.90625 40.484375 42.875 44.328125 
Q 39.84375 48.1875 33.796875 48.1875 
Q 26.515625 48.1875 22.3125 43.546875 
Q 18.109375 38.921875 18.109375 30.90625 
L 18.109375 0 
L 9.078125 0 
L 9.078125 54.6875 
L 18.109375 54.6875 
L 18.109375 46.1875 
Q 21.34375 51.125 25.703125 53.5625 
Q 30.078125 56 35.796875 56 
Q 45.21875 56 50.046875 50.171875 
Q 54.890625 44.34375 54.890625 33.015625 
" id="DejaVuSans-6e"/>
     <path d="M 18.3125 70.21875 
L 18.3125 54.6875 
L 36.8125 54.6875 
L 36.8125 47.703125 
L 18.3125 47.703125 
L 18.3125 18.015625 
Q 18.3125 11.328125 20.140625 9.421875 
Q 21.96875 7.515625 27.59375 7.515625 
L 36.8125 7.515625 
L 36.8125 0 
L 27.59375 0 
Q 17.1875 0 13.234375 3.875 
Q 9.28125 7.765625 9.28125 18.015625 
L 9.28125 47.703125 
L 2.6875 47.703125 
L 2.6875 54.6875 
L 9.28125 54.6875 
L 9.28125 70.21875 
z
" id="DejaVuSans-74"/>
    </defs>
    <g style="fill:#5f7799;" transform="translate(300.207812 455.121034)scale(0.1 -0.1)">
     <use xlink:href="#DejaVuSans-57"/>
     <use x="98.845703" xlink:href="#DejaVuSans-69"/>
     <use x="126.628906" xlink:href="#DejaVuSans-6e"/>
     <use x="190.007812" xlink:href="#DejaVuSans-74"/>
     <use x="229.216797" xlink:href="#DejaVuSans-65"/>
     <use x="290.740234" xlink:href="#DejaVuSans-72"/>
    </g>
   </g>
   <g id="text_11">
    <!--  TOO COLD, 16°C -->
    <defs>
     <path d="M -0.296875 72.90625 
L 61.375 72.90625 
L 61.375 64.59375 
L 35.5 64.59375 
L 35.5 0 
L 25.59375 0 
L 25.59375 64.59375 
L -0.296875 64.59375 
z
" id="DejaVuSans-54"/>
     <path d="M 39.40625 66.21875 
Q 28.65625 66.21875 22.328125 58.203125 
Q 16.015625 50.203125 16.015625 36.375 
Q 16.015625 22.609375 22.328125 14.59375 
Q 28.65625 6.59375 39.40625 6.59375 
Q 50.140625 6.59375 56.421875 14.59375 
Q 62.703125 22.609375 62.703125 36.375 
Q 62.703125 50.203125 56.421875 58.203125 
Q 50.140625 66.21875 39.40625 66.21875 
M 39.40625 74.21875 
Q 54.734375 74.21875 63.90625 63.9375 
Q 73.09375 53.65625 73.09375 36.375 
Q 73.09375 19.140625 63.90625 8.859375 
Q 54.734375 -1.421875 39.40625 -1.421875 
Q 24.03125 -1.421875 14.8125 8.828125 
Q 5.609375 19.09375 5.609375 36.375 
Q 5.609375 53.65625 14.8125 63.9375 
Q 24.03125 74.21875 39.40625 74.21875 
" id="DejaVuSans-4f"/>
     <path d="M 9.8125 72.90625 
L 19.671875 72.90625 
L 19.671875 8.296875 
L 55.171875 8.296875 
L 55.171875 0 
L 9.8125 0 
z
" id="DejaVuSans-4c"/>
     <path d="M 19.671875 64.796875 
L 19.671875 8.109375 
L 31.59375 8.109375 
Q 46.6875 8.109375 53.6875 14.9375 
Q 60.6875 21.78125 60.6875 36.53125 
Q 60.6875 51.171875 53.6875 57.984375 
Q 46.6875 64.796875 31.59375 64.796875 
z
M 9.8125 72.90625 
L 30.078125 72.90625 
Q 51.265625 72.90625 61.171875 64.09375 
Q 71.09375 55.28125 71.09375 36.53125 
Q 71.09375 17.671875 61.125 8.828125 
Q 51.171875 0 30.078125 0 
L 9.8125 0 
z
" id="DejaVuSans-44"/>
     <path d="M 11.71875 12.40625 
L 22.015625 12.40625 
L 22.015625 4 
L 14.015625 -11.625 
L 7.71875 -11.625 
L 11.71875 4 
z
" id="DejaVuSans-2c"/>
    </defs>
    <g style="fill:#001848;" transform="translate(54.688438 648)rotate(-90)scale(0.14 -0.14)">
     <use xlink:href="#DejaVuSans-20"/>
     <use x="31.787109" xlink:href="#DejaVuSans-54"/>
     <use x="92.871094" xlink:href="#DejaVuSans-4f"/>
     <use x="171.582031" xlink:href="#DejaVuSans-4f"/>
     <use x="250.292969" xlink:href="#DejaVuSans-20"/>
     <use x="282.080078" xlink:href="#DejaVuSans-43"/>
     <use x="351.904297" xlink:href="#DejaVuSans-4f"/>
     <use x="430.615234" xlink:href="#DejaVuSans-4c"/>
     <use x="486.328125" xlink:href="#DejaVuSans-44"/>
     <use x="563.330078" xlink:href="#DejaVuSans-2c"/>
     <use x="595.117188" xlink:href="#DejaVuSans-20"/>
     <use x="626.904297" xlink:href="#DejaVuSans-31"/>
     <use x="690.527344" xlink:href="#DejaVuSans-36"/>
     <use x="754.150391" xlink:href="#DejaVuSans-b0"/>
     <use x="804.150391" xlink:href="#DejaVuSans-43"/>
    </g>
   </g>
   <g id="text_12">
    <!-- TOO HOT, 30°C  -->
    <defs>
     <path d="M 40.578125 39.3125 
Q 47.65625 37.796875 51.625 33 
Q 55.609375 28.21875 55.609375 21.1875 
Q 55.609375 10.40625 48.1875 4.484375 
Q 40.765625 -1.421875 27.09375 -1.421875 
Q 22.515625 -1.421875 17.65625 -0.515625 
Q 12.796875 0.390625 7.625 2.203125 
L 7.625 11.71875 
Q 11.71875 9.328125 16.59375 8.109375 
Q 21.484375 6.890625 26.8125 6.890625 
Q 36.078125 6.890625 40.9375 10.546875 
Q 45.796875 14.203125 45.796875 21.1875 
Q 45.796875 27.640625 41.28125 31.265625 
Q 36.765625 34.90625 28.71875 34.90625 
L 20.21875 34.90625 
L 20.21875 43.015625 
L 29.109375 43.015625 
Q 36.375 43.015625 40.234375 45.921875 
Q 44.09375 48.828125 44.09375 54.296875 
Q 44.09375 59.90625 40.109375 62.90625 
Q 36.140625 65.921875 28.71875 65.921875 
Q 24.65625 65.921875 20.015625 65.03125 
Q 15.375 64.15625 9.8125 62.3125 
L 9.8125 71.09375 
Q 15.4375 72.65625 20.34375 73.4375 
Q 25.25 74.21875 29.59375 74.21875 
Q 40.828125 74.21875 47.359375 69.109375 
Q 53.90625 64.015625 53.90625 55.328125 
Q 53.90625 49.265625 50.4375 45.09375 
Q 46.96875 40.921875 40.578125 39.3125 
" id="DejaVuSans-33"/>
    </defs>
    <g style="fill:#bf002f;" transform="translate(866.911563 534.919375)rotate(-270)scale(0.14 -0.14)">
     <use xlink:href="#DejaVuSans-54"/>
     <use x="61.083984" xlink:href="#DejaVuSans-4f"/>
     <use x="139.794922" xlink:href="#DejaVuSans-4f"/>
     <use x="218.505859" xlink:href="#DejaVuSans-20"/>
     <use x="250.292969" xlink:href="#DejaVuSans-48"/>
     <use x="325.488281" xlink:href="#DejaVuSans-4f"/>
     <use x="404.199219" xlink:href="#DejaVuSans-54"/>
     <use x="465.283203" xlink:href="#DejaVuSans-2c"/>
     <use x="497.070312" xlink:href="#DejaVuSans-20"/>
     <use x="528.857422" xlink:href="#DejaVuSans-33"/>
     <use x="592.480469" xlink:href="#DejaVuSans-30"/>
     <use x="656.103516" xlink:href="#DejaVuSans-b0"/>
     <use x="706.103516" xlink:href="#DejaVuSans-43"/>
     <use x="775.927734" xlink:href="#DejaVuSans-20"/>
    </g>
   </g>
   <g id="text_13">
    <!-- P=1016.4 mb  -->
    <defs>
     <path d="M 19.671875 64.796875 
L 19.671875 37.40625 
L 32.078125 37.40625 
Q 38.96875 37.40625 42.71875 40.96875 
Q 46.484375 44.53125 46.484375 51.125 
Q 46.484375 57.671875 42.71875 61.234375 
Q 38.96875 64.796875 32.078125 64.796875 
z
M 9.8125 72.90625 
L 32.078125 72.90625 
Q 44.34375 72.90625 50.609375 67.359375 
Q 56.890625 61.8125 56.890625 51.125 
Q 56.890625 40.328125 50.609375 34.8125 
Q 44.34375 29.296875 32.078125 29.296875 
L 19.671875 29.296875 
L 19.671875 0 
L 9.8125 0 
z
" id="DejaVuSans-50"/>
     <path d="M 10.59375 45.40625 
L 73.1875 45.40625 
L 73.1875 37.203125 
L 10.59375 37.203125 
z
M 10.59375 25.484375 
L 73.1875 25.484375 
L 73.1875 17.1875 
L 10.59375 17.1875 
z
" id="DejaVuSans-3d"/>
     <path d="M 48.6875 27.296875 
Q 48.6875 37.203125 44.609375 42.84375 
Q 40.53125 48.484375 33.40625 48.484375 
Q 26.265625 48.484375 22.1875 42.84375 
Q 18.109375 37.203125 18.109375 27.296875 
Q 18.109375 17.390625 22.1875 11.75 
Q 26.265625 6.109375 33.40625 6.109375 
Q 40.53125 6.109375 44.609375 11.75 
Q 48.6875 17.390625 48.6875 27.296875 
M 18.109375 46.390625 
Q 20.953125 51.265625 25.265625 53.625 
Q 29.59375 56 35.59375 56 
Q 45.5625 56 51.78125 48.09375 
Q 58.015625 40.1875 58.015625 27.296875 
Q 58.015625 14.40625 51.78125 6.484375 
Q 45.5625 -1.421875 35.59375 -1.421875 
Q 29.59375 -1.421875 25.265625 0.953125 
Q 20.953125 3.328125 18.109375 8.203125 
L 18.109375 0 
L 9.078125 0 
L 9.078125 75.984375 
L 18.109375 75.984375 
z
" id="DejaVuSans-62"/>
    </defs>
    <g style="fill:#9400d3;" transform="translate(1044.232031 644.880469)scale(0.15 -0.15)">
     <use xlink:href="#DejaVuSans-50"/>
     <use x="60.302734" xlink:href="#DejaVuSans-3d"/>
     <use x="144.091797" xlink:href="#DejaVuSans-31"/>
     <use x="207.714844" xlink:href="#DejaVuSans-30"/>
     <use x="271.337891" xlink:href="#DejaVuSans-31"/>
     <use x="334.960938" xlink:href="#DejaVuSans-36"/>
     <use x="398.583984" xlink:href="#DejaVuSans-2e"/>
     <use x="430.371094" xlink:href="#DejaVuSans-34"/>
     <use x="493.994141" xlink:href="#DejaVuSans-20"/>
     <use x="525.78125" xlink:href="#DejaVuSans-6d"/>
     <use x="623.193359" xlink:href="#DejaVuSans-62"/>
     <use x="686.669922" xlink:href="#DejaVuSans-20"/>
    </g>
   </g>
   <g id="patch_10">
    <path d="M 492.093801 345.375275 
Q 492.966341 343.647716 493.838881 341.920157 
L 493.838881 341.920157 
Q 491.994103 342.505458 490.149324 343.09076 
z
" style="fill:#fd9d64;fill-opacity:0.6;"/>
   </g>
   <g id="patch_11">
    <path d="M 545.43587 340.588093 
Q 544.426121 341.200883 543.416372 341.813673 
L 543.416372 341.813673 
Q 544.213063 342.685675 545.009755 343.557676 
z
" style="fill:#f15346;fill-opacity:0.6;"/>
   </g>
   <g id="patch_12">
    <path d="M 562.255892 311.391183 
Q 561.473901 312.28561 560.691911 313.180037 
L 560.691911 313.180037 
Q 561.726447 313.764198 562.760983 314.348358 
z
" style="fill:#006400;fill-opacity:0.6;"/>
   </g>
   <g id="patch_13">
    <path d="M 519.9 369.000873 
Q 519.15 367.752031 518.4 366.503189 
L 518.4 366.503189 
Q 517.65 367.752031 516.9 369.000873 
z
" style="fill:#00008b;fill-opacity:0.6;"/>
   </g>
   <g id="patch_14">
    <path d="M 614.678532 363.35824 
Q 613.598465 363.894531 612.518398 364.430821 
L 612.518398 364.430821 
Q 613.285246 365.361464 614.052093 366.292107 
z
" style="fill:#8fbb46;fill-opacity:0.6;"/>
   </g>
   <g id="patch_15">
    <path d="M 565.98 337.879902 
Q 565.23 336.461589 564.48 335.043277 
L 564.48 335.043277 
Q 563.73 336.461589 562.98 337.879902 
z
" style="fill:#ff8c00;fill-opacity:0.6;"/>
   </g>
   <g id="patch_16">
    <path d="M 554.46 341.21023 
Q 553.71 340.523297 552.96 339.836365 
L 552.96 339.836365 
Q 552.21 340.523297 551.46 341.21023 
z
" style="fill:#a250fb;fill-opacity:0.6;"/>
   </g>
   <g id="patch_17">
    <path d="M 987.291048 319.788723 
Q 993.80362 317.150823 1000.316191 314.512923 
L 1000.316191 314.512923 
Q 993.392103 315.708376 986.468015 316.903828 
z
" style="fill:#5882fb;fill-opacity:0.6;"/>
   </g>
   <g id="patch_18">
    <path d="M 631.196012 385.796063 
Q 621.812191 390.170931 612.42837 394.545798 
L 612.42837 394.545798 
Q 622.345866 391.572783 632.263363 388.599768 
z
" style="fill:#7996bb;fill-opacity:0.6;"/>
   </g>
   <g id="text_14">
    <!-- ∆T:0.2h -->
    <defs>
     <path d="M 33.40625 61.625 
L 12.984375 8.6875 
L 53.8125 8.6875 
z
M 27.984375 71.921875 
L 38.921875 71.921875 
L 67.1875 0 
L -0.296875 0 
z
" id="DejaVuSans-2206"/>
     <path d="M 11.71875 12.40625 
L 22.015625 12.40625 
L 22.015625 0 
L 11.71875 0 
z
M 11.71875 51.703125 
L 22.015625 51.703125 
L 22.015625 39.3125 
L 11.71875 39.3125 
z
" id="DejaVuSans-3a"/>
     <path d="M 54.890625 33.015625 
L 54.890625 0 
L 45.90625 0 
L 45.90625 32.71875 
Q 45.90625 40.484375 42.875 44.328125 
Q 39.84375 48.1875 33.796875 48.1875 
Q 26.515625 48.1875 22.3125 43.546875 
Q 18.109375 38.921875 18.109375 30.90625 
L 18.109375 0 
L 9.078125 0 
L 9.078125 75.984375 
L 18.109375 75.984375 
L 18.109375 46.1875 
Q 21.34375 51.125 25.703125 53.5625 
Q 30.078125 56 35.796875 56 
Q 45.21875 56 50.046875 50.171875 
Q 54.890625 44.34375 54.890625 33.015625 
" id="DejaVuSans-68"/>
    </defs>
    <g style="fill:#a9a9a9;" transform="translate(0 645.920313)scale(0.1 -0.1)">
     <use xlink:href="#DejaVuSans-2206"/>
     <use x="66.894531" xlink:href="#DejaVuSans-54"/>
     <use x="127.806641" xlink:href="#DejaVuSans-3a"/>
     <use x="161.498047" xlink:href="#DejaVuSans-30"/>
     <use x="225.121094" xlink:href="#DejaVuSans-2e"/>
     <use x="256.908203" xlink:href="#DejaVuSans-32"/>
     <use x="320.53125" xlink:href="#DejaVuSans-68"/>
    </g>
   </g>
   <g id="legend_1">
    <g id="line2d_52">
     <path d="M 7.2 10.47875 
L 23.2 10.47875 
" style="fill:none;opacity:0.9;"/>
    </g>
    <g id="line2d_53">
     <defs>
      <path d="M 0 2.8 
C 0.742569 2.8 1.454824 2.504974 1.979899 1.979899 
C 2.504974 1.454824 2.8 0.742569 2.8 0 
C 2.8 -0.742569 2.504974 -1.454824 1.979899 -1.979899 
C 1.454824 -2.504974 0.742569 -2.8 0 -2.8 
C -0.742569 -2.8 -1.454824 -2.504974 -1.979899 -1.979899 
C -2.504974 -1.454824 -2.8 -0.742569 -2.8 0 
C -2.8 0.742569 -2.504974 1.454824 -1.979899 1.979899 
C -1.454824 2.504974 -0.742569 2.8 0 2.8 
z
" id="mc5e9b0df1d" style="stroke:#fd9d64;"/>
     </defs>
     <g>
      <use style="fill:#fd9d64;opacity:0.9;stroke:#fd9d64;" x="15.2" xlink:href="#mc5e9b0df1d" y="10.47875"/>
     </g>
    </g>
    <g id="text_15">
     <!-- Aseo -->
     <defs>
      <path d="M 34.1875 63.1875 
L 20.796875 26.90625 
L 47.609375 26.90625 
z
M 28.609375 72.90625 
L 39.796875 72.90625 
L 67.578125 0 
L 57.328125 0 
L 50.6875 18.703125 
L 17.828125 18.703125 
L 11.1875 0 
L 0.78125 0 
z
" id="DejaVuSans-41"/>
      <path d="M 44.28125 53.078125 
L 44.28125 44.578125 
Q 40.484375 46.53125 36.375 47.5 
Q 32.28125 48.484375 27.875 48.484375 
Q 21.1875 48.484375 17.84375 46.4375 
Q 14.5 44.390625 14.5 40.28125 
Q 14.5 37.15625 16.890625 35.375 
Q 19.28125 33.59375 26.515625 31.984375 
L 29.59375 31.296875 
Q 39.15625 29.25 43.1875 25.515625 
Q 47.21875 21.78125 47.21875 15.09375 
Q 47.21875 7.46875 41.1875 3.015625 
Q 35.15625 -1.421875 24.609375 -1.421875 
Q 20.21875 -1.421875 15.453125 -0.5625 
Q 10.6875 0.296875 5.421875 2 
L 5.421875 11.28125 
Q 10.40625 8.6875 15.234375 7.390625 
Q 20.0625 6.109375 24.8125 6.109375 
Q 31.15625 6.109375 34.5625 8.28125 
Q 37.984375 10.453125 37.984375 14.40625 
Q 37.984375 18.0625 35.515625 20.015625 
Q 33.0625 21.96875 24.703125 23.78125 
L 21.578125 24.515625 
Q 13.234375 26.265625 9.515625 29.90625 
Q 5.8125 33.546875 5.8125 39.890625 
Q 5.8125 47.609375 11.28125 51.796875 
Q 16.75 56 26.8125 56 
Q 31.78125 56 36.171875 55.265625 
Q 40.578125 54.546875 44.28125 53.078125 
" id="DejaVuSans-73"/>
      <path d="M 30.609375 48.390625 
Q 23.390625 48.390625 19.1875 42.75 
Q 14.984375 37.109375 14.984375 27.296875 
Q 14.984375 17.484375 19.15625 11.84375 
Q 23.34375 6.203125 30.609375 6.203125 
Q 37.796875 6.203125 41.984375 11.859375 
Q 46.1875 17.53125 46.1875 27.296875 
Q 46.1875 37.015625 41.984375 42.703125 
Q 37.796875 48.390625 30.609375 48.390625 
M 30.609375 56 
Q 42.328125 56 49.015625 48.375 
Q 55.71875 40.765625 55.71875 27.296875 
Q 55.71875 13.875 49.015625 6.21875 
Q 42.328125 -1.421875 30.609375 -1.421875 
Q 18.84375 -1.421875 12.171875 6.21875 
Q 5.515625 13.875 5.515625 27.296875 
Q 5.515625 40.765625 12.171875 48.375 
Q 18.84375 56 30.609375 56 
" id="DejaVuSans-6f"/>
     </defs>
     <g transform="translate(29.6 13.27875)scale(0.08 -0.08)">
      <use xlink:href="#DejaVuSans-41"/>
      <use x="68.408203" xlink:href="#DejaVuSans-73"/>
      <use x="120.507812" xlink:href="#DejaVuSans-65"/>
      <use x="182.03125" xlink:href="#DejaVuSans-6f"/>
     </g>
    </g>
    <g id="line2d_54">
     <path d="M 7.2 24.62125 
L 23.2 24.62125 
" style="fill:none;opacity:0.9;"/>
    </g>
    <g id="line2d_55">
     <defs>
      <path d="M 0 3.15 
C 0.83539 3.15 1.636677 2.818096 2.227386 2.227386 
C 2.818096 1.636677 3.15 0.83539 3.15 0 
C 3.15 -0.83539 2.818096 -1.636677 2.227386 -2.227386 
C 1.636677 -2.818096 0.83539 -3.15 0 -3.15 
C -0.83539 -3.15 -1.636677 -2.818096 -2.227386 -2.227386 
C -2.818096 -1.636677 -3.15 -0.83539 -3.15 0 
C -3.15 0.83539 -2.818096 1.636677 -2.227386 2.227386 
C -1.636677 2.818096 -0.83539 3.15 0 3.15 
z
" id="md06dd6475d" style="stroke:#f15346;"/>
     </defs>
     <g>
      <use style="fill:#f15346;opacity:0.9;stroke:#f15346;" x="15.2" xlink:href="#md06dd6475d" y="24.62125"/>
     </g>
    </g>
    <g id="text_16">
     <!-- Cocina -->
     <defs>
      <path d="M 48.78125 52.59375 
L 48.78125 44.1875 
Q 44.96875 46.296875 41.140625 47.34375 
Q 37.3125 48.390625 33.40625 48.390625 
Q 24.65625 48.390625 19.8125 42.84375 
Q 14.984375 37.3125 14.984375 27.296875 
Q 14.984375 17.28125 19.8125 11.734375 
Q 24.65625 6.203125 33.40625 6.203125 
Q 37.3125 6.203125 41.140625 7.25 
Q 44.96875 8.296875 48.78125 10.40625 
L 48.78125 2.09375 
Q 45.015625 0.34375 40.984375 -0.53125 
Q 36.96875 -1.421875 32.421875 -1.421875 
Q 20.0625 -1.421875 12.78125 6.34375 
Q 5.515625 14.109375 5.515625 27.296875 
Q 5.515625 40.671875 12.859375 48.328125 
Q 20.21875 56 33.015625 56 
Q 37.15625 56 41.109375 55.140625 
Q 45.0625 54.296875 48.78125 52.59375 
" id="DejaVuSans-63"/>
      <path d="M 34.28125 27.484375 
Q 23.390625 27.484375 19.1875 25 
Q 14.984375 22.515625 14.984375 16.5 
Q 14.984375 11.71875 18.140625 8.90625 
Q 21.296875 6.109375 26.703125 6.109375 
Q 34.1875 6.109375 38.703125 11.40625 
Q 43.21875 16.703125 43.21875 25.484375 
L 43.21875 27.484375 
z
M 52.203125 31.203125 
L 52.203125 0 
L 43.21875 0 
L 43.21875 8.296875 
Q 40.140625 3.328125 35.546875 0.953125 
Q 30.953125 -1.421875 24.3125 -1.421875 
Q 15.921875 -1.421875 10.953125 3.296875 
Q 6 8.015625 6 15.921875 
Q 6 25.140625 12.171875 29.828125 
Q 18.359375 34.515625 30.609375 34.515625 
L 43.21875 34.515625 
L 43.21875 35.40625 
Q 43.21875 41.609375 39.140625 45 
Q 35.0625 48.390625 27.6875 48.390625 
Q 23 48.390625 18.546875 47.265625 
Q 14.109375 46.140625 10.015625 43.890625 
L 10.015625 52.203125 
Q 14.9375 54.109375 19.578125 55.046875 
Q 24.21875 56 28.609375 56 
Q 40.484375 56 46.34375 49.84375 
Q 52.203125 43.703125 52.203125 31.203125 
" id="DejaVuSans-61"/>
     </defs>
     <g transform="translate(29.6 27.42125)scale(0.08 -0.08)">
      <use xlink:href="#DejaVuSans-43"/>
      <use x="69.824219" xlink:href="#DejaVuSans-6f"/>
      <use x="131.005859" xlink:href="#DejaVuSans-63"/>
      <use x="185.986328" xlink:href="#DejaVuSans-69"/>
      <use x="213.769531" xlink:href="#DejaVuSans-6e"/>
      <use x="277.148438" xlink:href="#DejaVuSans-61"/>
     </g>
    </g>
    <g id="line2d_56">
     <path d="M 7.2 38.76375 
L 23.2 38.76375 
" style="fill:none;opacity:0.9;"/>
    </g>
    <g id="line2d_57">
     <defs>
      <path d="M 0 3.5 
C 0.928211 3.5 1.81853 3.131218 2.474874 2.474874 
C 3.131218 1.81853 3.5 0.928211 3.5 0 
C 3.5 -0.928211 3.131218 -1.81853 2.474874 -2.474874 
C 1.81853 -3.131218 0.928211 -3.5 0 -3.5 
C -0.928211 -3.5 -1.81853 -3.131218 -2.474874 -2.474874 
C -3.131218 -1.81853 -3.5 -0.928211 -3.5 0 
C -3.5 0.928211 -3.131218 1.81853 -2.474874 2.474874 
C -1.81853 3.131218 -0.928211 3.5 0 3.5 
z
" id="m4a48851f0e" style="stroke:#006400;"/>
     </defs>
     <g>
      <use style="fill:#006400;opacity:0.9;stroke:#006400;" x="15.2" xlink:href="#m4a48851f0e" y="38.76375"/>
     </g>
    </g>
    <g id="text_17">
     <!-- Dormitorio -->
     <g transform="translate(29.6 41.56375)scale(0.08 -0.08)">
      <use xlink:href="#DejaVuSans-44"/>
      <use x="77.001953" xlink:href="#DejaVuSans-6f"/>
      <use x="138.183594" xlink:href="#DejaVuSans-72"/>
      <use x="179.28125" xlink:href="#DejaVuSans-6d"/>
      <use x="276.693359" xlink:href="#DejaVuSans-69"/>
      <use x="304.476562" xlink:href="#DejaVuSans-74"/>
      <use x="343.685547" xlink:href="#DejaVuSans-6f"/>
      <use x="404.867188" xlink:href="#DejaVuSans-72"/>
      <use x="445.980469" xlink:href="#DejaVuSans-69"/>
      <use x="473.763672" xlink:href="#DejaVuSans-6f"/>
     </g>
    </g>
    <g id="line2d_58">
     <path d="M 7.2 52.90625 
L 23.2 52.90625 
" style="fill:none;opacity:0.9;"/>
    </g>
    <g id="line2d_59">
     <defs>
      <path d="M 0 3.15 
C 0.83539 3.15 1.636677 2.818096 2.227386 2.227386 
C 2.818096 1.636677 3.15 0.83539 3.15 0 
C 3.15 -0.83539 2.818096 -1.636677 2.227386 -2.227386 
C 1.636677 -2.818096 0.83539 -3.15 0 -3.15 
C -0.83539 -3.15 -1.636677 -2.818096 -2.227386 -2.227386 
C -2.818096 -1.636677 -3.15 -0.83539 -3.15 0 
C -3.15 0.83539 -2.818096 1.636677 -2.227386 2.227386 
C -1.636677 2.818096 -0.83539 3.15 0 3.15 
z
" id="ma65d073b54" style="stroke:#00008b;"/>
     </defs>
     <g>
      <use style="fill:#00008b;opacity:0.9;stroke:#00008b;" x="15.2" xlink:href="#ma65d073b54" y="52.90625"/>
     </g>
    </g>
    <g id="text_18">
     <!-- Estudio -->
     <defs>
      <path d="M 9.8125 72.90625 
L 55.90625 72.90625 
L 55.90625 64.59375 
L 19.671875 64.59375 
L 19.671875 43.015625 
L 54.390625 43.015625 
L 54.390625 34.71875 
L 19.671875 34.71875 
L 19.671875 8.296875 
L 56.78125 8.296875 
L 56.78125 0 
L 9.8125 0 
z
" id="DejaVuSans-45"/>
      <path d="M 45.40625 46.390625 
L 45.40625 75.984375 
L 54.390625 75.984375 
L 54.390625 0 
L 45.40625 0 
L 45.40625 8.203125 
Q 42.578125 3.328125 38.25 0.953125 
Q 33.9375 -1.421875 27.875 -1.421875 
Q 17.96875 -1.421875 11.734375 6.484375 
Q 5.515625 14.40625 5.515625 27.296875 
Q 5.515625 40.1875 11.734375 48.09375 
Q 17.96875 56 27.875 56 
Q 33.9375 56 38.25 53.625 
Q 42.578125 51.265625 45.40625 46.390625 
M 14.796875 27.296875 
Q 14.796875 17.390625 18.875 11.75 
Q 22.953125 6.109375 30.078125 6.109375 
Q 37.203125 6.109375 41.296875 11.75 
Q 45.40625 17.390625 45.40625 27.296875 
Q 45.40625 37.203125 41.296875 42.84375 
Q 37.203125 48.484375 30.078125 48.484375 
Q 22.953125 48.484375 18.875 42.84375 
Q 14.796875 37.203125 14.796875 27.296875 
" id="DejaVuSans-64"/>
     </defs>
     <g transform="translate(29.6 55.70625)scale(0.08 -0.08)">
      <use xlink:href="#DejaVuSans-45"/>
      <use x="63.183594" xlink:href="#DejaVuSans-73"/>
      <use x="115.283203" xlink:href="#DejaVuSans-74"/>
      <use x="154.492188" xlink:href="#DejaVuSans-75"/>
      <use x="217.871094" xlink:href="#DejaVuSans-64"/>
      <use x="281.347656" xlink:href="#DejaVuSans-69"/>
      <use x="309.130859" xlink:href="#DejaVuSans-6f"/>
     </g>
    </g>
    <g id="line2d_60">
     <path d="M 7.2 67.04875 
L 23.2 67.04875 
" style="fill:none;opacity:0.9;"/>
    </g>
    <g id="line2d_61">
     <defs>
      <path d="M 0 4.2 
C 1.113853 4.2 2.182235 3.757462 2.969848 2.969848 
C 3.757462 2.182235 4.2 1.113853 4.2 0 
C 4.2 -1.113853 3.757462 -2.182235 2.969848 -2.969848 
C 2.182235 -3.757462 1.113853 -4.2 0 -4.2 
C -1.113853 -4.2 -2.182235 -3.757462 -2.969848 -2.969848 
C -3.757462 -2.182235 -4.2 -1.113853 -4.2 0 
C -4.2 1.113853 -3.757462 2.182235 -2.969848 2.969848 
C -2.182235 3.757462 -1.113853 4.2 0 4.2 
z
" id="m5b32aaaf0e" style="stroke:#8fbb46;"/>
     </defs>
     <g>
      <use style="fill:#8fbb46;opacity:0.9;stroke:#8fbb46;" x="15.2" xlink:href="#m5b32aaaf0e" y="67.04875"/>
     </g>
    </g>
    <g id="text_19">
     <!-- Office -->
     <defs>
      <path d="M 37.109375 75.984375 
L 37.109375 68.5 
L 28.515625 68.5 
Q 23.6875 68.5 21.796875 66.546875 
Q 19.921875 64.59375 19.921875 59.515625 
L 19.921875 54.6875 
L 34.71875 54.6875 
L 34.71875 47.703125 
L 19.921875 47.703125 
L 19.921875 0 
L 10.890625 0 
L 10.890625 47.703125 
L 2.296875 47.703125 
L 2.296875 54.6875 
L 10.890625 54.6875 
L 10.890625 58.5 
Q 10.890625 67.625 15.140625 71.796875 
Q 19.390625 75.984375 28.609375 75.984375 
z
" id="DejaVuSans-66"/>
     </defs>
     <g transform="translate(29.6 69.84875)scale(0.08 -0.08)">
      <use xlink:href="#DejaVuSans-4f"/>
      <use x="78.710938" xlink:href="#DejaVuSans-66"/>
      <use x="113.916016" xlink:href="#DejaVuSans-66"/>
      <use x="149.121094" xlink:href="#DejaVuSans-69"/>
      <use x="176.904297" xlink:href="#DejaVuSans-63"/>
      <use x="231.884766" xlink:href="#DejaVuSans-65"/>
     </g>
    </g>
    <g id="line2d_62">
     <path d="M 7.2 81.19125 
L 23.2 81.19125 
" style="fill:none;opacity:0.9;"/>
    </g>
    <g id="line2d_63">
     <defs>
      <path d="M 0 4.2 
C 1.113853 4.2 2.182235 3.757462 2.969848 2.969848 
C 3.757462 2.182235 4.2 1.113853 4.2 0 
C 4.2 -1.113853 3.757462 -2.182235 2.969848 -2.969848 
C 2.182235 -3.757462 1.113853 -4.2 0 -4.2 
C -1.113853 -4.2 -2.182235 -3.757462 -2.969848 -2.969848 
C -3.757462 -2.182235 -4.2 -1.113853 -4.2 0 
C -4.2 1.113853 -3.757462 2.182235 -2.969848 2.969848 
C -2.182235 3.757462 -1.113853 4.2 0 4.2 
z
" id="m835d4a1c9f" style="stroke:#ff8c00;"/>
     </defs>
     <g>
      <use style="fill:#ff8c00;opacity:0.9;stroke:#ff8c00;" x="15.2" xlink:href="#m835d4a1c9f" y="81.19125"/>
     </g>
    </g>
    <g id="text_20">
     <!-- Salón -->
     <defs>
      <path d="M 9.421875 75.984375 
L 18.40625 75.984375 
L 18.40625 0 
L 9.421875 0 
z
" id="DejaVuSans-6c"/>
      <path d="M 30.609375 48.390625 
Q 23.390625 48.390625 19.1875 42.75 
Q 14.984375 37.109375 14.984375 27.296875 
Q 14.984375 17.484375 19.15625 11.84375 
Q 23.34375 6.203125 30.609375 6.203125 
Q 37.796875 6.203125 41.984375 11.859375 
Q 46.1875 17.53125 46.1875 27.296875 
Q 46.1875 37.015625 41.984375 42.703125 
Q 37.796875 48.390625 30.609375 48.390625 
M 30.609375 56 
Q 42.328125 56 49.015625 48.375 
Q 55.71875 40.765625 55.71875 27.296875 
Q 55.71875 13.875 49.015625 6.21875 
Q 42.328125 -1.421875 30.609375 -1.421875 
Q 18.84375 -1.421875 12.171875 6.21875 
Q 5.515625 13.875 5.515625 27.296875 
Q 5.515625 40.765625 12.171875 48.375 
Q 18.84375 56 30.609375 56 
M 37.40625 79.984375 
L 47.125 79.984375 
L 31.21875 61.625 
L 23.734375 61.625 
z
" id="DejaVuSans-f3"/>
     </defs>
     <g transform="translate(29.6 83.99125)scale(0.08 -0.08)">
      <use xlink:href="#DejaVuSans-53"/>
      <use x="63.476562" xlink:href="#DejaVuSans-61"/>
      <use x="124.755859" xlink:href="#DejaVuSans-6c"/>
      <use x="152.539062" xlink:href="#DejaVuSans-f3"/>
      <use x="213.720703" xlink:href="#DejaVuSans-6e"/>
     </g>
    </g>
    <g id="line2d_64">
     <path d="M 7.2 95.33375 
L 23.2 95.33375 
" style="fill:none;opacity:0.7;"/>
    </g>
    <g id="line2d_65">
     <defs>
      <path d="M 0 3.15 
C 0.83539 3.15 1.636677 2.818096 2.227386 2.227386 
C 2.818096 1.636677 3.15 0.83539 3.15 0 
C 3.15 -0.83539 2.818096 -1.636677 2.227386 -2.227386 
C 1.636677 -2.818096 0.83539 -3.15 0 -3.15 
C -0.83539 -3.15 -1.636677 -2.818096 -2.227386 -2.227386 
C -2.818096 -1.636677 -3.15 -0.83539 -3.15 0 
C -3.15 0.83539 -2.818096 1.636677 -2.227386 2.227386 
C -1.636677 2.818096 -0.83539 3.15 0 3.15 
z
" id="mf04edf8190" style="stroke:#a250fb;"/>
     </defs>
     <g>
      <use style="fill:#a250fb;opacity:0.7;stroke:#a250fb;" x="15.2" xlink:href="#mf04edf8190" y="95.33375"/>
     </g>
    </g>
    <g id="text_21">
     <!-- Galería -->
     <defs>
      <path d="M 59.515625 10.40625 
L 59.515625 29.984375 
L 43.40625 29.984375 
L 43.40625 38.09375 
L 69.28125 38.09375 
L 69.28125 6.78125 
Q 63.578125 2.734375 56.6875 0.65625 
Q 49.8125 -1.421875 42 -1.421875 
Q 24.90625 -1.421875 15.25 8.5625 
Q 5.609375 18.5625 5.609375 36.375 
Q 5.609375 54.25 15.25 64.234375 
Q 24.90625 74.21875 42 74.21875 
Q 49.125 74.21875 55.546875 72.453125 
Q 61.96875 70.703125 67.390625 67.28125 
L 67.390625 56.78125 
Q 61.921875 61.421875 55.765625 63.765625 
Q 49.609375 66.109375 42.828125 66.109375 
Q 29.4375 66.109375 22.71875 58.640625 
Q 16.015625 51.171875 16.015625 36.375 
Q 16.015625 21.625 22.71875 14.15625 
Q 29.4375 6.6875 42.828125 6.6875 
Q 48.046875 6.6875 52.140625 7.59375 
Q 56.25 8.5 59.515625 10.40625 
" id="DejaVuSans-47"/>
      <path d="M 20.65625 79.984375 
L 30.375 79.984375 
L 14.46875 61.625 
L 6.984375 61.625 
z
M 9.421875 54.6875 
L 18.40625 54.6875 
L 18.40625 0 
L 9.421875 0 
z
M 13.921875 56 
z
" id="DejaVuSans-ed"/>
     </defs>
     <g transform="translate(29.6 98.13375)scale(0.08 -0.08)">
      <use xlink:href="#DejaVuSans-47"/>
      <use x="77.490234" xlink:href="#DejaVuSans-61"/>
      <use x="138.769531" xlink:href="#DejaVuSans-6c"/>
      <use x="166.552734" xlink:href="#DejaVuSans-65"/>
      <use x="228.076172" xlink:href="#DejaVuSans-72"/>
      <use x="269.189453" xlink:href="#DejaVuSans-ed"/>
      <use x="296.972656" xlink:href="#DejaVuSans-61"/>
     </g>
    </g>
    <g id="line2d_66">
     <path d="M 7.2 109.47625 
L 23.2 109.47625 
" style="fill:none;opacity:0.7;"/>
    </g>
    <g id="line2d_67">
     <defs>
      <path d="M 0 4.2 
C 1.113853 4.2 2.182235 3.757462 2.969848 2.969848 
C 3.757462 2.182235 4.2 1.113853 4.2 0 
C 4.2 -1.113853 3.757462 -2.182235 2.969848 -2.969848 
C 2.182235 -3.757462 1.113853 -4.2 0 -4.2 
C -1.113853 -4.2 -2.182235 -3.757462 -2.969848 -2.969848 
C -3.757462 -2.182235 -4.2 -1.113853 -4.2 0 
C -4.2 1.113853 -3.757462 2.182235 -2.969848 2.969848 
C -2.182235 3.757462 -1.113853 4.2 0 4.2 
z
" id="m2816b380c6" style="stroke:#5882fb;"/>
     </defs>
     <g>
      <use style="fill:#5882fb;opacity:0.7;stroke:#5882fb;" x="15.2" xlink:href="#m2816b380c6" y="109.47625"/>
     </g>
    </g>
    <g id="text_22">
     <!-- Terraza -->
     <defs>
      <path d="M 5.515625 54.6875 
L 48.1875 54.6875 
L 48.1875 46.484375 
L 14.40625 7.171875 
L 48.1875 7.171875 
L 48.1875 0 
L 4.296875 0 
L 4.296875 8.203125 
L 38.09375 47.515625 
L 5.515625 47.515625 
z
" id="DejaVuSans-7a"/>
     </defs>
     <g transform="translate(29.6 112.27625)scale(0.08 -0.08)">
      <use xlink:href="#DejaVuSans-54"/>
      <use x="60.818359" xlink:href="#DejaVuSans-65"/>
      <use x="122.341797" xlink:href="#DejaVuSans-72"/>
      <use x="163.439453" xlink:href="#DejaVuSans-72"/>
      <use x="204.552734" xlink:href="#DejaVuSans-61"/>
      <use x="265.832031" xlink:href="#DejaVuSans-7a"/>
      <use x="318.322266" xlink:href="#DejaVuSans-61"/>
     </g>
    </g>
    <g id="line2d_68">
     <path d="M 7.2 123.61875 
L 23.2 123.61875 
" style="fill:none;opacity:0.6;"/>
    </g>
    <g id="line2d_69">
     <defs>
      <path d="M 0 2.45 
C 0.649748 2.45 1.272971 2.191853 1.732412 1.732412 
C 2.191853 1.272971 2.45 0.649748 2.45 0 
C 2.45 -0.649748 2.191853 -1.272971 1.732412 -1.732412 
C 1.272971 -2.191853 0.649748 -2.45 0 -2.45 
C -0.649748 -2.45 -1.272971 -2.191853 -1.732412 -1.732412 
C -2.191853 -1.272971 -2.45 -0.649748 -2.45 0 
C -2.45 0.649748 -2.191853 1.272971 -1.732412 1.732412 
C -1.272971 2.191853 -0.649748 2.45 0 2.45 
z
" id="mfc69a88de2" style="stroke:#7996bb;"/>
     </defs>
     <g>
      <use style="fill:#7996bb;opacity:0.6;stroke:#7996bb;" x="15.2" xlink:href="#mfc69a88de2" y="123.61875"/>
     </g>
    </g>
    <g id="text_23">
     <!-- Previsto -->
     <defs>
      <path d="M 2.984375 54.6875 
L 12.5 54.6875 
L 29.59375 8.796875 
L 46.6875 54.6875 
L 56.203125 54.6875 
L 35.6875 0 
L 23.484375 0 
z
" id="DejaVuSans-76"/>
     </defs>
     <g transform="translate(29.6 126.41875)scale(0.08 -0.08)">
      <use xlink:href="#DejaVuSans-50"/>
      <use x="60.287109" xlink:href="#DejaVuSans-72"/>
      <use x="101.369141" xlink:href="#DejaVuSans-65"/>
      <use x="162.892578" xlink:href="#DejaVuSans-76"/>
      <use x="222.072266" xlink:href="#DejaVuSans-69"/>
      <use x="249.855469" xlink:href="#DejaVuSans-73"/>
      <use x="301.955078" xlink:href="#DejaVuSans-74"/>
      <use x="341.164062" xlink:href="#DejaVuSans-6f"/>
     </g>
    </g>
   </g>
  </g>
 </g>
 <defs>
  <clipPath id="p03371a207a">
   <rect height="648" width="1152" x="0" y="0"/>
  </clipPath>
 </defs>
</svg>
